<svg xmlns="http://www.w3.org/2000/svg" xmlns:xlink="http://www.w3.org/1999/xlink" width="500" zoomAndPan="magnify" viewBox="0 0 375 374.999991" height="500" preserveAspectRatio="xMidYMid meet" version="1.0"><defs><g/><clipPath id="8a38e15d64"><path d="M 22 79 L 95 79 L 95 268 L 22 268 Z M 22 79 " clip-rule="nonzero"/></clipPath><clipPath id="1b9941d331"><path d="M 28.429688 76.460938 L 101.726562 81.910156 L 87.65625 271.140625 L 14.359375 265.6875 Z M 28.429688 76.460938 " clip-rule="nonzero"/></clipPath><clipPath id="d93ccf88c4"><path d="M 28.429688 76.460938 L 101.726562 81.910156 L 87.65625 271.140625 L 14.359375 265.6875 Z M 28.429688 76.460938 " clip-rule="nonzero"/></clipPath></defs><g clip-path="url(#8a38e15d64)"><g clip-path="url(#1b9941d331)"><g clip-path="url(#d93ccf88c4)"><path fill="#fedd2b" d="M 67.046875 79.703125 C 66.484375 79.816406 65.976562 80.054688 65.523438 80.410156 C 65.074219 80.765625 64.726562 81.207031 64.488281 81.726562 L 23.234375 170.953125 C 23.117188 171.203125 23.03125 171.464844 22.976562 171.734375 C 22.917969 172.003906 22.894531 172.277344 22.902344 172.554688 C 22.90625 172.828125 22.945312 173.101562 23.011719 173.367188 C 23.082031 173.632812 23.179688 173.890625 23.308594 174.136719 C 23.4375 174.378906 23.589844 174.605469 23.769531 174.816406 C 23.949219 175.023438 24.148438 175.210938 24.371094 175.375 C 24.59375 175.535156 24.832031 175.671875 25.085938 175.78125 C 25.339844 175.886719 25.601562 175.964844 25.875 176.015625 L 48.566406 180 L 33.042969 263.078125 C 32.964844 263.503906 32.960938 263.933594 33.035156 264.363281 C 33.113281 264.789062 33.257812 265.191406 33.480469 265.566406 C 33.699219 265.941406 33.980469 266.265625 34.320312 266.539062 C 34.65625 266.816406 35.03125 267.019531 35.445312 267.15625 C 35.859375 267.292969 36.28125 267.355469 36.71875 267.339844 C 37.152344 267.324219 37.570312 267.230469 37.972656 267.0625 C 38.375 266.894531 38.734375 266.660156 39.050781 266.363281 C 39.367188 266.0625 39.621094 265.71875 39.8125 265.328125 L 94.171875 154.890625 C 94.464844 154.296875 94.582031 153.671875 94.53125 153.011719 C 94.476562 152.355469 94.261719 151.757812 93.878906 151.21875 C 93.496094 150.679688 93.003906 150.273438 92.398438 150.007812 C 91.796875 149.742188 91.164062 149.648438 90.511719 149.726562 L 62.835938 152.996094 L 71.320312 83.671875 C 71.351562 83.390625 71.355469 83.109375 71.320312 82.824219 C 71.289062 82.542969 71.226562 82.269531 71.128906 82 C 71.03125 81.734375 70.902344 81.480469 70.746094 81.246094 C 70.585938 81.007812 70.40625 80.792969 70.195312 80.597656 C 69.988281 80.40625 69.757812 80.238281 69.511719 80.097656 C 69.261719 79.960938 69.003906 79.851562 68.730469 79.773438 C 68.457031 79.695312 68.175781 79.652344 67.890625 79.640625 C 67.609375 79.628906 67.324219 79.648438 67.046875 79.703125 Z M 61.390625 105.542969 L 55.136719 156.679688 C 55.101562 156.949219 55.101562 157.222656 55.128906 157.492188 C 55.160156 157.761719 55.21875 158.023438 55.304688 158.28125 C 55.394531 158.539062 55.511719 158.78125 55.65625 159.015625 C 55.800781 159.246094 55.96875 159.457031 56.160156 159.648438 C 56.351562 159.839844 56.5625 160.011719 56.792969 160.15625 C 57.023438 160.300781 57.265625 160.417969 57.523438 160.507812 C 57.777344 160.597656 58.042969 160.65625 58.3125 160.6875 C 58.582031 160.714844 58.851562 160.714844 59.121094 160.683594 L 84.789062 157.644531 L 44.941406 238.605469 L 56.316406 177.742188 C 56.40625 177.269531 56.402344 176.796875 56.300781 176.328125 C 56.199219 175.859375 56.011719 175.425781 55.738281 175.03125 C 55.464844 174.636719 55.125 174.308594 54.71875 174.050781 C 54.316406 173.789062 53.875 173.621094 53.402344 173.535156 L 31.726562 169.726562 Z M 61.390625 105.542969 " fill-opacity="1" fill-rule="nonzero"/></g></g></g><g fill="#ffffff" fill-opacity="1"><g transform="translate(108.503849, 166.839125)"><g><path d="M 50.261719 0 L 52.851562 -14.808594 L 23.234375 -14.808594 L 60.441406 -58.867188 L 62.570312 -70.625 L 12.21875 -70.625 L 9.535156 -55.8125 L 37.578125 -55.8125 L -0.277344 -11.199219 L -2.222656 0 Z M 50.261719 0 "/></g></g></g><g fill="#ffffff" fill-opacity="1"><g transform="translate(163.383172, 166.839125)"><g><path d="M 61.832031 0 L 50.167969 -70.625 L 32.210938 -70.625 L -4.441406 0 L 14.070312 0 L 20.085938 -12.679688 L 43.597656 -12.679688 L 45.167969 0 Z M 38.78125 -52.203125 L 41.835938 -27.027344 L 26.84375 -27.027344 Z M 38.78125 -52.203125 "/></g></g></g><g fill="#ffffff" fill-opacity="1"><g transform="translate(227.146942, 166.839125)"><g><path d="M 17.492188 0 L 22.308594 -27.210938 L 39.058594 -27.210938 C 54.886719 -27.210938 65.71875 -39.152344 65.71875 -54.796875 C 65.71875 -66.089844 58.035156 -70.625 46.742188 -70.625 L 13.421875 -70.625 L 0.925781 0 Z M 27.304688 -55.8125 L 41.746094 -55.8125 C 46.464844 -55.8125 48.964844 -53.960938 48.964844 -50.445312 C 48.964844 -45.078125 44.523438 -41.558594 38.320312 -41.558594 L 24.804688 -41.558594 Z M 27.304688 -55.8125 "/></g></g></g><g fill="#ffffff" fill-opacity="1"><g transform="translate(287.486514, 166.839125)"><g><path d="M 17.492188 0 L 22.308594 -27.210938 L 39.058594 -27.210938 C 54.886719 -27.210938 65.71875 -39.152344 65.71875 -54.796875 C 65.71875 -66.089844 58.035156 -70.625 46.742188 -70.625 L 13.421875 -70.625 L 0.925781 0 Z M 27.304688 -55.8125 L 41.746094 -55.8125 C 46.464844 -55.8125 48.964844 -53.960938 48.964844 -50.445312 C 48.964844 -45.078125 44.523438 -41.558594 38.320312 -41.558594 L 24.804688 -41.558594 Z M 27.304688 -55.8125 "/></g></g></g><g fill="#ffffff" fill-opacity="1"><g transform="translate(101.139671, 221.447393)"><g><path d="M 3.207031 -13.976562 C 4.40625 -13.976562 5.398438 -14.714844 5.398438 -15.960938 C 5.398438 -17.183594 4.40625 -17.964844 3.207031 -17.964844 C 2.007812 -17.964844 1.015625 -17.183594 1.015625 -15.960938 C 1.015625 -14.714844 2.007812 -13.976562 3.207031 -13.976562 Z M 5.144531 0 L 5.144531 -13.078125 L 1.269531 -13.078125 L 1.269531 0 Z M 5.144531 0 "/></g></g></g><g fill="#ffffff" fill-opacity="1"><g transform="translate(106.83494, 221.447393)"><g><path d="M 5.144531 0 L 5.144531 -7.566406 C 5.144531 -8.742188 5.304688 -9.339844 5.652344 -9.753906 C 5.902344 -10.078125 6.320312 -10.238281 6.851562 -10.238281 C 7.980469 -10.238281 8.554688 -9.734375 8.554688 -8.28125 L 8.554688 0 L 12.429688 0 L 12.429688 -7.566406 C 12.429688 -8.601562 12.546875 -9.316406 12.9375 -9.777344 C 13.191406 -10.078125 13.605469 -10.238281 14.160156 -10.238281 C 15.246094 -10.238281 15.820312 -9.734375 15.820312 -8.28125 L 15.820312 0 L 19.695312 0 L 19.695312 -8.625 C 19.695312 -11.460938 18.382812 -13.351562 15.429688 -13.351562 C 13.652344 -13.351562 12.570312 -12.660156 11.808594 -11.460938 C 11.347656 -12.707031 10.21875 -13.351562 8.488281 -13.351562 C 7.195312 -13.351562 5.972656 -12.890625 5.144531 -11.667969 L 5.144531 -13.078125 L 1.269531 -13.078125 L 1.269531 0 Z M 5.144531 0 "/></g></g></g><g fill="#ffffff" fill-opacity="1"><g transform="translate(126.98825, 221.447393)"><g><path d="M 5.050781 0.277344 C 6.132812 0.277344 7.171875 0.117188 7.933594 -0.414062 C 8.347656 -0.691406 8.648438 -1.082031 8.855469 -1.589844 L 8.855469 0 L 12.730469 0 L 12.730469 -6.203125 C 12.730469 -8.625 12.730469 -10.679688 11.117188 -12.0625 C 10.078125 -12.960938 8.578125 -13.351562 7.058594 -13.351562 C 4.429688 -13.351562 1.730469 -11.992188 1.246094 -8.71875 L 5.097656 -8.71875 C 5.28125 -9.824219 6.132812 -10.449219 7.035156 -10.449219 C 7.609375 -10.449219 8.050781 -10.308594 8.347656 -9.984375 C 8.648438 -9.640625 8.832031 -9.132812 8.878906 -8.464844 L 5.488281 -7.863281 C 4.496094 -7.679688 3.320312 -7.425781 2.398438 -6.828125 C 1.453125 -6.203125 0.761719 -5.234375 0.761719 -3.667969 C 0.761719 -1.039062 2.699219 0.277344 5.050781 0.277344 Z M 6.179688 -2.652344 C 5.351562 -2.652344 4.636719 -2.976562 4.636719 -3.804688 C 4.636719 -4.175781 4.773438 -4.429688 4.980469 -4.636719 C 5.304688 -4.933594 5.71875 -5.097656 6.574219 -5.257812 L 8.949219 -5.71875 C 8.902344 -4.289062 8.648438 -3.460938 7.585938 -2.976562 C 7.125 -2.765625 6.617188 -2.652344 6.179688 -2.652344 Z M 6.179688 -2.652344 "/></g></g></g><g fill="#ffffff" fill-opacity="1"><g transform="translate(140.131601, 221.447393)"><g><path d="M 7.425781 4.796875 C 10.886719 4.796875 13.722656 3.574219 13.722656 -1.105469 L 13.722656 -13.078125 L 9.847656 -13.078125 L 9.847656 -11.667969 C 8.972656 -12.984375 7.886719 -13.351562 6.503906 -13.351562 C 3.160156 -13.351562 0.808594 -10.539062 0.808594 -6.757812 C 0.808594 -3 3.160156 -0.183594 6.503906 -0.183594 C 7.886719 -0.183594 8.972656 -0.554688 9.847656 -1.867188 L 9.847656 -0.117188 C 9.847656 0.96875 9.15625 1.914062 7.402344 1.914062 C 6.25 1.914062 5.511719 1.566406 5.097656 0.460938 L 1.222656 0.460938 C 1.800781 3.988281 4.726562 4.796875 7.425781 4.796875 Z M 7.585938 -3.484375 C 5.835938 -3.484375 4.726562 -4.933594 4.726562 -6.757812 C 4.726562 -8.601562 5.859375 -10.054688 7.585938 -10.054688 C 9.292969 -10.054688 10.449219 -8.648438 10.449219 -6.757812 C 10.449219 -4.890625 9.292969 -3.484375 7.585938 -3.484375 Z M 7.585938 -3.484375 "/></g></g></g><g fill="#ffffff" fill-opacity="1"><g transform="translate(154.404846, 221.447393)"><g><path d="M 3.207031 -13.976562 C 4.40625 -13.976562 5.398438 -14.714844 5.398438 -15.960938 C 5.398438 -17.183594 4.40625 -17.964844 3.207031 -17.964844 C 2.007812 -17.964844 1.015625 -17.183594 1.015625 -15.960938 C 1.015625 -14.714844 2.007812 -13.976562 3.207031 -13.976562 Z M 5.144531 0 L 5.144531 -13.078125 L 1.269531 -13.078125 L 1.269531 0 Z M 5.144531 0 "/></g></g></g><g fill="#ffffff" fill-opacity="1"><g transform="translate(160.100115, 221.447393)"><g><path d="M 5.144531 0 L 5.144531 -7.355469 C 5.144531 -8.488281 5.304688 -9.132812 5.628906 -9.570312 C 5.972656 -10.054688 6.550781 -10.238281 7.355469 -10.238281 C 8.003906 -10.238281 8.464844 -10.101562 8.785156 -9.753906 C 9.179688 -9.339844 9.339844 -8.648438 9.339844 -7.355469 L 9.339844 0 L 13.214844 0 L 13.214844 -7.3125 C 13.214844 -8.925781 13.214844 -9.964844 12.707031 -11.09375 C 12.175781 -12.292969 11.070312 -13.351562 8.488281 -13.351562 C 7.101562 -13.351562 6.019531 -12.984375 5.144531 -11.667969 L 5.144531 -13.078125 L 1.269531 -13.078125 L 1.269531 0 Z M 5.144531 0 "/></g></g></g><g fill="#ffffff" fill-opacity="1"><g transform="translate(173.77382, 221.447393)"><g><path d="M 5.050781 0.277344 C 6.132812 0.277344 7.171875 0.117188 7.933594 -0.414062 C 8.347656 -0.691406 8.648438 -1.082031 8.855469 -1.589844 L 8.855469 0 L 12.730469 0 L 12.730469 -6.203125 C 12.730469 -8.625 12.730469 -10.679688 11.117188 -12.0625 C 10.078125 -12.960938 8.578125 -13.351562 7.058594 -13.351562 C 4.429688 -13.351562 1.730469 -11.992188 1.246094 -8.71875 L 5.097656 -8.71875 C 5.28125 -9.824219 6.132812 -10.449219 7.035156 -10.449219 C 7.609375 -10.449219 8.050781 -10.308594 8.347656 -9.984375 C 8.648438 -9.640625 8.832031 -9.132812 8.878906 -8.464844 L 5.488281 -7.863281 C 4.496094 -7.679688 3.320312 -7.425781 2.398438 -6.828125 C 1.453125 -6.203125 0.761719 -5.234375 0.761719 -3.667969 C 0.761719 -1.039062 2.699219 0.277344 5.050781 0.277344 Z M 6.179688 -2.652344 C 5.351562 -2.652344 4.636719 -2.976562 4.636719 -3.804688 C 4.636719 -4.175781 4.773438 -4.429688 4.980469 -4.636719 C 5.304688 -4.933594 5.71875 -5.097656 6.574219 -5.257812 L 8.949219 -5.71875 C 8.902344 -4.289062 8.648438 -3.460938 7.585938 -2.976562 C 7.125 -2.765625 6.617188 -2.652344 6.179688 -2.652344 Z M 6.179688 -2.652344 "/></g></g></g><g fill="#ffffff" fill-opacity="1"><g transform="translate(186.917166, 221.447393)"><g><path d="M 8.394531 0 L 8.394531 -3.136719 L 6.941406 -3.136719 C 6.273438 -3.136719 6.15625 -3.550781 6.15625 -3.921875 L 6.15625 -10.054688 L 8.417969 -10.054688 L 8.417969 -13.078125 L 6.15625 -13.078125 L 6.15625 -17.597656 L 2.285156 -17.597656 L 2.285156 -13.078125 L 0.484375 -13.078125 L 0.484375 -10.054688 L 2.285156 -10.054688 L 2.285156 -2.605469 C 2.285156 -0.945312 3.390625 0 5.304688 0 Z M 8.394531 0 "/></g></g></g><g fill="#ffffff" fill-opacity="1"><g transform="translate(195.379521, 221.447393)"><g><path d="M 3.207031 -13.976562 C 4.40625 -13.976562 5.398438 -14.714844 5.398438 -15.960938 C 5.398438 -17.183594 4.40625 -17.964844 3.207031 -17.964844 C 2.007812 -17.964844 1.015625 -17.183594 1.015625 -15.960938 C 1.015625 -14.714844 2.007812 -13.976562 3.207031 -13.976562 Z M 5.144531 0 L 5.144531 -13.078125 L 1.269531 -13.078125 L 1.269531 0 Z M 5.144531 0 "/></g></g></g><g fill="#ffffff" fill-opacity="1"><g transform="translate(201.074793, 221.447393)"><g><path d="M 7.609375 0.277344 C 11.761719 0.277344 14.484375 -2.46875 14.484375 -6.617188 C 14.484375 -10.609375 11.714844 -13.351562 7.609375 -13.351562 C 3.503906 -13.351562 0.738281 -10.632812 0.738281 -6.617188 C 0.738281 -2.445312 3.527344 0.277344 7.609375 0.277344 Z M 7.609375 -3.042969 C 5.882812 -3.042969 4.726562 -4.429688 4.726562 -6.617188 C 4.726562 -8.671875 5.882812 -10.054688 7.609375 -10.054688 C 9.363281 -10.054688 10.449219 -8.648438 10.449219 -6.617188 C 10.449219 -4.472656 9.363281 -3.042969 7.609375 -3.042969 Z M 7.609375 -3.042969 "/></g></g></g><g fill="#ffffff" fill-opacity="1"><g transform="translate(215.578634, 221.447393)"><g><path d="M 5.144531 0 L 5.144531 -7.355469 C 5.144531 -8.488281 5.304688 -9.132812 5.628906 -9.570312 C 5.972656 -10.054688 6.550781 -10.238281 7.355469 -10.238281 C 8.003906 -10.238281 8.464844 -10.101562 8.785156 -9.753906 C 9.179688 -9.339844 9.339844 -8.648438 9.339844 -7.355469 L 9.339844 0 L 13.214844 0 L 13.214844 -7.3125 C 13.214844 -8.925781 13.214844 -9.964844 12.707031 -11.09375 C 12.175781 -12.292969 11.070312 -13.351562 8.488281 -13.351562 C 7.101562 -13.351562 6.019531 -12.984375 5.144531 -11.667969 L 5.144531 -13.078125 L 1.269531 -13.078125 L 1.269531 0 Z M 5.144531 0 "/></g></g></g><g fill="#ffffff" fill-opacity="1"><g transform="translate(229.252342, 221.447393)"><g/></g></g><g fill="#ffffff" fill-opacity="1"><g transform="translate(234.532541, 221.447393)"><g><path d="M 7.148438 0.277344 C 10.632812 0.277344 12.753906 -1.476562 12.753906 -4.082031 C 12.753906 -7.125 9.894531 -7.65625 7.609375 -8.070312 C 6.113281 -8.347656 4.867188 -8.578125 4.867188 -9.457031 C 4.867188 -10.054688 5.488281 -10.449219 6.433594 -10.449219 C 7.425781 -10.449219 8.417969 -9.984375 8.785156 -8.742188 L 12.453125 -8.742188 C 11.96875 -11.714844 9.640625 -13.351562 6.457031 -13.351562 C 3.734375 -13.351562 1.199219 -12.246094 1.199219 -9.363281 C 1.199219 -6.273438 4.011719 -5.695312 6.25 -5.257812 C 7.726562 -4.957031 8.949219 -4.703125 8.949219 -3.828125 C 8.949219 -3.089844 8.140625 -2.652344 7.101562 -2.652344 C 5.996094 -2.652344 4.867188 -3.207031 4.429688 -4.519531 L 0.667969 -4.519531 C 1.105469 -0.875 4.40625 0.277344 7.148438 0.277344 Z M 7.148438 0.277344 "/></g></g></g><g fill="#ffffff" fill-opacity="1"><g transform="translate(247.376133, 221.447393)"><g><path d="M 8.394531 0 L 8.394531 -3.136719 L 6.941406 -3.136719 C 6.273438 -3.136719 6.15625 -3.550781 6.15625 -3.921875 L 6.15625 -10.054688 L 8.417969 -10.054688 L 8.417969 -13.078125 L 6.15625 -13.078125 L 6.15625 -17.597656 L 2.285156 -17.597656 L 2.285156 -13.078125 L 0.484375 -13.078125 L 0.484375 -10.054688 L 2.285156 -10.054688 L 2.285156 -2.605469 C 2.285156 -0.945312 3.390625 0 5.304688 0 Z M 8.394531 0 "/></g></g></g><g fill="#ffffff" fill-opacity="1"><g transform="translate(255.838487, 221.447393)"><g><path d="M 5.144531 0 L 5.144531 -5.511719 C 5.144531 -7.289062 5.441406 -8.324219 6.113281 -8.972656 C 6.574219 -9.410156 7.242188 -9.664062 8.324219 -9.664062 L 9.0625 -9.664062 L 9.0625 -13.351562 L 8.488281 -13.351562 C 7.101562 -13.351562 6.019531 -12.984375 5.144531 -11.667969 L 5.144531 -13.078125 L 1.269531 -13.078125 L 1.269531 0 Z M 5.144531 0 "/></g></g></g><g fill="#ffffff" fill-opacity="1"><g transform="translate(264.577558, 221.447393)"><g><path d="M 3.207031 -13.976562 C 4.40625 -13.976562 5.398438 -14.714844 5.398438 -15.960938 C 5.398438 -17.183594 4.40625 -17.964844 3.207031 -17.964844 C 2.007812 -17.964844 1.015625 -17.183594 1.015625 -15.960938 C 1.015625 -14.714844 2.007812 -13.976562 3.207031 -13.976562 Z M 5.144531 0 L 5.144531 -13.078125 L 1.269531 -13.078125 L 1.269531 0 Z M 5.144531 0 "/></g></g></g><g fill="#ffffff" fill-opacity="1"><g transform="translate(270.272831, 221.447393)"><g><path d="M 5.144531 0 L 5.144531 -6.273438 L 9.753906 0 L 14.367188 0 L 8.695312 -7.449219 L 14.070312 -13.078125 L 9.292969 -13.078125 L 5.144531 -8.488281 L 5.144531 -17.597656 L 1.269531 -17.597656 L 1.269531 0 Z M 5.144531 0 "/></g></g></g><g fill="#ffffff" fill-opacity="1"><g transform="translate(283.946539, 221.447393)"><g><path d="M 7.566406 0.277344 C 11.253906 0.277344 13.261719 -1.9375 14 -4.519531 L 10.101562 -4.519531 C 9.777344 -3.714844 8.949219 -3.042969 7.773438 -3.042969 C 6.804688 -3.042969 6.019531 -3.34375 5.464844 -4.035156 C 5.144531 -4.429688 4.890625 -5.074219 4.796875 -5.71875 L 14.207031 -5.71875 L 14.207031 -6.386719 C 14.207031 -11.4375 10.886719 -13.351562 7.449219 -13.351562 C 2.722656 -13.351562 0.738281 -9.753906 0.738281 -6.433594 C 0.738281 -2.558594 3.414062 0.277344 7.566406 0.277344 Z M 4.914062 -8.464844 C 4.957031 -8.765625 5.074219 -9.203125 5.511719 -9.640625 C 6.066406 -10.195312 6.804688 -10.402344 7.585938 -10.402344 C 8.371094 -10.402344 9.109375 -10.195312 9.664062 -9.640625 C 10.078125 -9.226562 10.21875 -8.765625 10.285156 -8.464844 Z M 4.914062 -8.464844 "/></g></g></g><g fill="#ffffff" fill-opacity="1"><g transform="translate(298.173664, 221.447393)"><g><path d="M 7.148438 0.277344 C 10.632812 0.277344 12.753906 -1.476562 12.753906 -4.082031 C 12.753906 -7.125 9.894531 -7.65625 7.609375 -8.070312 C 6.113281 -8.347656 4.867188 -8.578125 4.867188 -9.457031 C 4.867188 -10.054688 5.488281 -10.449219 6.433594 -10.449219 C 7.425781 -10.449219 8.417969 -9.984375 8.785156 -8.742188 L 12.453125 -8.742188 C 11.96875 -11.714844 9.640625 -13.351562 6.457031 -13.351562 C 3.734375 -13.351562 1.199219 -12.246094 1.199219 -9.363281 C 1.199219 -6.273438 4.011719 -5.695312 6.25 -5.257812 C 7.726562 -4.957031 8.949219 -4.703125 8.949219 -3.828125 C 8.949219 -3.089844 8.140625 -2.652344 7.101562 -2.652344 C 5.996094 -2.652344 4.867188 -3.207031 4.429688 -4.519531 L 0.667969 -4.519531 C 1.105469 -0.875 4.40625 0.277344 7.148438 0.277344 Z M 7.148438 0.277344 "/></g></g></g></svg>